Sucker Punch *2011*[BluRay][1080p][ENG, POL]

General information:
Country: USA, Canada
Release: 21 March 2011
Genre: Action, Adventure, Fantasy, Thriller 
Director: Zack Snyder
Screenplay: Zack Snyder, Steve Shibuya
Original Music: Tyler Bates, Marius De Vries
Cinematography by: Larry Fong
Duration: 1h 49mn
Language: English, Polish 
Subtitles: English, Polish 
Rating: - 6.4 - 10179 votes


Cast:
Emily Browning	...Baby Doll
Abbie Cornish ...Sweet Pea
Jena Malone ...Rocket
Vanessa Hudgens	...Blondie
Jamie Chung ...Amber
Carla Gugino ...Dr. Vera Gorski
Oscar Isaac ...Blue Jones
Jon Hamm ...High Roller / Doctor
Scott Glenn ...Wise Man
Richard Cetrone ...CJ
Gerard Plunkett ...Stepfather
Malcolm Scott ...The Cook
Ron Selmour ...Danforth
Alan C. Peterson ...Mayor / Lighter Orderly (as AC Peterson)
Revard Dufresne ...Big Boss Thug / Orderly 3

Plot:
A young girl is institutionalized by her abusive stepfather. Retreating to an alternative reality as a coping strategy, she envisions a plan which will help her escape from the mental facility.

Specifications:
Format                           : Matroska
Format version                   : Version 2
Overall bit rate                 : 10.7 Mbps

Video
Format                           : AVC
Format/Info                      : Advanced Video Codec
Format profile                   : High@L4.1
Format settings, CABAC           : Yes
Format settings, ReFrames        : 5 frames
Muxing mode                      : Header stripping
Codec ID                         : V_MPEG4/ISO/AVC
Bit rate mode                    : Variable
Bit rate                         : 8 839 Kbps
Maximum bit rate                 : 40.0 Mbps
Width                            : 1 920 pixels
Height                           : 800 pixels
Display aspect ratio             : 2.40:1
Frame rate                       : 23.976 fps

Audio 1
Format                           : DTS
Format/Info                      : Digital Theater Systems
Muxing mode                      : Header stripping
Codec ID                         : A_DTS
Bit rate mode                    : Constant
Bit rate                         : 1 510 Kbps
Channel(s)                       : 6 channels
Channel positions                : Front: L C R, Side: L R, LFE
Sampling rate                    : 48.0 KHz
Bit depth                        : 24 bits
Compression mode                 : Lossy
Stream size                      : 1.16 GiB (14%)
Title                            : English
Language                         : English

Audio 2
Format                           : AC-3
Format/Info                      : Audio Coding 3
Mode extension                   : CM (complete main)
Muxing mode                      : Header stripping
Codec ID                         : A_AC3
Bit rate mode                    : Constant
Bit rate                         : 384 Kbps
Channel(s)                       : 6 channels
Channel positions                : Front: L C R, Side: L R, LFE
Sampling rate                    : 48.0 KHz
Bit depth                        : 16 bits
Compression mode                 : Lossy
Stream size                      : 301 MiB (4%)
Title                            : Polish
Language                         : Polish

Text 1
Format                           : UTF-8
Codec ID                         : S_TEXT/UTF8
Codec ID/Info                    : UTF-8 Plain Text
Title                            : English
Language                         : English

Text 2
Format                           : UTF-8
Codec ID                         : S_TEXT/UTF8
Codec ID/Info                    : UTF-8 Plain Text
Title                            : Polish
Language                         : Polish
